G75*
%MOIN*%
%OFA0B0*%
%FSLAX25Y25*%
%IPPOS*%
%LPD*%
%AMOC8*
5,1,8,0,0,1.08239X$1,22.5*
%
%ADD10C,0.00000*%
%ADD11C,0.00600*%
%ADD12C,0.01200*%
%ADD13C,0.00400*%
%ADD14C,0.00197*%
D10*
X0002312Y0009181D02*
X0002312Y0160756D01*
X0004281Y0160756D01*
X0004405Y0160758D01*
X0004528Y0160764D01*
X0004652Y0160773D01*
X0004774Y0160787D01*
X0004897Y0160804D01*
X0005019Y0160826D01*
X0005140Y0160851D01*
X0005260Y0160880D01*
X0005379Y0160912D01*
X0005498Y0160949D01*
X0005615Y0160989D01*
X0005730Y0161032D01*
X0005845Y0161080D01*
X0005957Y0161131D01*
X0006068Y0161185D01*
X0006178Y0161243D01*
X0006285Y0161304D01*
X0006391Y0161369D01*
X0006494Y0161437D01*
X0006595Y0161508D01*
X0006694Y0161582D01*
X0006791Y0161659D01*
X0006885Y0161740D01*
X0006976Y0161823D01*
X0007065Y0161909D01*
X0007151Y0161998D01*
X0007234Y0162089D01*
X0007315Y0162183D01*
X0007392Y0162280D01*
X0007466Y0162379D01*
X0007537Y0162480D01*
X0007605Y0162583D01*
X0007670Y0162689D01*
X0007731Y0162796D01*
X0007789Y0162906D01*
X0007843Y0163017D01*
X0007894Y0163129D01*
X0007942Y0163244D01*
X0007985Y0163359D01*
X0008025Y0163476D01*
X0008062Y0163595D01*
X0008094Y0163714D01*
X0008123Y0163834D01*
X0008148Y0163955D01*
X0008170Y0164077D01*
X0008187Y0164200D01*
X0008201Y0164322D01*
X0008210Y0164446D01*
X0008216Y0164569D01*
X0008218Y0164693D01*
X0008218Y0174535D01*
X0105659Y0174535D01*
X0105659Y0164693D01*
X0105661Y0164569D01*
X0105667Y0164446D01*
X0105676Y0164322D01*
X0105690Y0164200D01*
X0105707Y0164077D01*
X0105729Y0163955D01*
X0105754Y0163834D01*
X0105783Y0163714D01*
X0105815Y0163595D01*
X0105852Y0163476D01*
X0105892Y0163359D01*
X0105935Y0163244D01*
X0105983Y0163129D01*
X0106034Y0163017D01*
X0106088Y0162906D01*
X0106146Y0162796D01*
X0106207Y0162689D01*
X0106272Y0162583D01*
X0106340Y0162480D01*
X0106411Y0162379D01*
X0106485Y0162280D01*
X0106562Y0162183D01*
X0106643Y0162089D01*
X0106726Y0161998D01*
X0106812Y0161909D01*
X0106901Y0161823D01*
X0106992Y0161740D01*
X0107086Y0161659D01*
X0107183Y0161582D01*
X0107282Y0161508D01*
X0107383Y0161437D01*
X0107486Y0161369D01*
X0107592Y0161304D01*
X0107699Y0161243D01*
X0107809Y0161185D01*
X0107920Y0161131D01*
X0108032Y0161080D01*
X0108147Y0161032D01*
X0108262Y0160989D01*
X0108379Y0160949D01*
X0108498Y0160912D01*
X0108617Y0160880D01*
X0108737Y0160851D01*
X0108858Y0160826D01*
X0108980Y0160804D01*
X0109103Y0160787D01*
X0109225Y0160773D01*
X0109349Y0160764D01*
X0109472Y0160758D01*
X0109596Y0160756D01*
X0111564Y0160756D01*
X0111564Y0009181D01*
X0089320Y0009181D01*
X0089320Y0015480D01*
X0089318Y0015604D01*
X0089312Y0015727D01*
X0089303Y0015851D01*
X0089289Y0015973D01*
X0089272Y0016096D01*
X0089250Y0016218D01*
X0089225Y0016339D01*
X0089196Y0016459D01*
X0089164Y0016578D01*
X0089127Y0016697D01*
X0089087Y0016814D01*
X0089044Y0016929D01*
X0088996Y0017044D01*
X0088945Y0017156D01*
X0088891Y0017267D01*
X0088833Y0017377D01*
X0088772Y0017484D01*
X0088707Y0017590D01*
X0088639Y0017693D01*
X0088568Y0017794D01*
X0088494Y0017893D01*
X0088417Y0017990D01*
X0088336Y0018084D01*
X0088253Y0018175D01*
X0088167Y0018264D01*
X0088078Y0018350D01*
X0087987Y0018433D01*
X0087893Y0018514D01*
X0087796Y0018591D01*
X0087697Y0018665D01*
X0087596Y0018736D01*
X0087493Y0018804D01*
X0087387Y0018869D01*
X0087280Y0018930D01*
X0087170Y0018988D01*
X0087059Y0019042D01*
X0086947Y0019093D01*
X0086832Y0019141D01*
X0086717Y0019184D01*
X0086600Y0019224D01*
X0086481Y0019261D01*
X0086362Y0019293D01*
X0086242Y0019322D01*
X0086121Y0019347D01*
X0085999Y0019369D01*
X0085876Y0019386D01*
X0085754Y0019400D01*
X0085630Y0019409D01*
X0085507Y0019415D01*
X0085383Y0019417D01*
X0028690Y0019417D01*
X0028566Y0019415D01*
X0028443Y0019409D01*
X0028319Y0019400D01*
X0028197Y0019386D01*
X0028074Y0019369D01*
X0027952Y0019347D01*
X0027831Y0019322D01*
X0027711Y0019293D01*
X0027592Y0019261D01*
X0027473Y0019224D01*
X0027356Y0019184D01*
X0027241Y0019141D01*
X0027126Y0019093D01*
X0027014Y0019042D01*
X0026903Y0018988D01*
X0026793Y0018930D01*
X0026686Y0018869D01*
X0026580Y0018804D01*
X0026477Y0018736D01*
X0026376Y0018665D01*
X0026277Y0018591D01*
X0026180Y0018514D01*
X0026086Y0018433D01*
X0025995Y0018350D01*
X0025906Y0018264D01*
X0025820Y0018175D01*
X0025737Y0018084D01*
X0025656Y0017990D01*
X0025579Y0017893D01*
X0025505Y0017794D01*
X0025434Y0017693D01*
X0025366Y0017590D01*
X0025301Y0017484D01*
X0025240Y0017377D01*
X0025182Y0017267D01*
X0025128Y0017156D01*
X0025077Y0017044D01*
X0025029Y0016929D01*
X0024986Y0016814D01*
X0024946Y0016697D01*
X0024909Y0016578D01*
X0024877Y0016459D01*
X0024848Y0016339D01*
X0024823Y0016218D01*
X0024801Y0016096D01*
X0024784Y0015973D01*
X0024770Y0015851D01*
X0024761Y0015727D01*
X0024755Y0015604D01*
X0024753Y0015480D01*
X0024753Y0009181D01*
X0002312Y0009181D01*
X0086958Y0001504D02*
X0110580Y0001504D01*
X0110580Y0064496D01*
X0086958Y0064496D01*
X0086958Y0001504D01*
D11*
X0022391Y0059378D02*
X0023966Y0061740D01*
X0020816Y0061740D01*
X0022391Y0059378D01*
D12*
X0018454Y0059378D02*
X0026722Y0059378D01*
D13*
X0088375Y0013175D02*
X0088375Y0010873D01*
X0092978Y0010873D01*
X0091444Y0010873D02*
X0091444Y0013175D01*
X0090677Y0013942D01*
X0089142Y0013942D01*
X0088375Y0013175D01*
X0089142Y0009339D02*
X0088375Y0008571D01*
X0088375Y0007037D01*
X0089142Y0006269D01*
X0089909Y0006269D01*
X0090677Y0007037D01*
X0090677Y0008571D01*
X0091444Y0009339D01*
X0092211Y0009339D01*
X0092978Y0008571D01*
X0092978Y0007037D01*
X0092211Y0006269D01*
X0092978Y0004735D02*
X0092978Y0003200D01*
X0092978Y0003967D02*
X0088375Y0003967D01*
X0088375Y0003200D02*
X0088375Y0004735D01*
D14*
X0018257Y0027094D02*
X0018257Y0027291D01*
X0018257Y0027094D02*
X0010383Y0027094D01*
X0010383Y0027291D01*
X0010383Y0036740D02*
X0010383Y0036937D01*
X0018257Y0036937D01*
X0018257Y0036740D01*
X0015442Y0035854D02*
X0015444Y0035891D01*
X0015450Y0035928D01*
X0015459Y0035964D01*
X0015473Y0035998D01*
X0015490Y0036031D01*
X0015510Y0036063D01*
X0015533Y0036092D01*
X0015559Y0036118D01*
X0015588Y0036141D01*
X0015619Y0036161D01*
X0015653Y0036178D01*
X0015687Y0036192D01*
X0015723Y0036201D01*
X0015760Y0036207D01*
X0015797Y0036209D01*
X0015834Y0036207D01*
X0015871Y0036201D01*
X0015907Y0036192D01*
X0015941Y0036178D01*
X0015974Y0036161D01*
X0016006Y0036141D01*
X0016035Y0036118D01*
X0016061Y0036092D01*
X0016084Y0036063D01*
X0016104Y0036032D01*
X0016121Y0035998D01*
X0016135Y0035964D01*
X0016144Y0035928D01*
X0016150Y0035891D01*
X0016152Y0035854D01*
X0016150Y0035817D01*
X0016144Y0035780D01*
X0016135Y0035744D01*
X0016121Y0035710D01*
X0016104Y0035677D01*
X0016084Y0035645D01*
X0016061Y0035616D01*
X0016035Y0035590D01*
X0016006Y0035567D01*
X0015975Y0035547D01*
X0015941Y0035530D01*
X0015907Y0035516D01*
X0015871Y0035507D01*
X0015834Y0035501D01*
X0015797Y0035499D01*
X0015760Y0035501D01*
X0015723Y0035507D01*
X0015687Y0035516D01*
X0015653Y0035530D01*
X0015620Y0035547D01*
X0015588Y0035567D01*
X0015559Y0035590D01*
X0015533Y0035616D01*
X0015510Y0035645D01*
X0015490Y0035676D01*
X0015473Y0035710D01*
X0015459Y0035744D01*
X0015450Y0035780D01*
X0015444Y0035817D01*
X0015442Y0035854D01*
M02*
