%
M48
M72
T01C0.01969
%
T01
X11761Y24732
X17667Y39299
X12155Y45598
X13730Y70008
X28690Y54457
X42667Y75323
X53493Y75126
X62352Y86543
X61761Y95795
X57037Y95992
X52115Y95795
X63730Y72567
X65895Y61150
X81052Y89102
X82037Y95205
X79478Y99339
X76525Y95598
X82037Y105441
X91092Y97370
X96013Y96976
X101525Y116071
X96604Y148551
X97391Y157409
X87549Y168039
X28690Y100717
X17667Y96780
X11958Y98748
X11958Y151898
X81643Y30244
X90501Y44811
X96604Y52685
X93651Y67646
X102115Y70992
M30
